<svg width="23" height="27" viewBox="0 0 23 27" fill="none" xmlns="http://www.w3.org/2000/svg">
<g clip-path="url(#clip0_411_7203)">
<path d="M9.68898 27C8.33071 26.3864 6.88189 25.8604 5.79528 24.9838C3.5315 23.1429 2.80709 20.6883 3.62205 17.8831C4.43701 15.0779 6.42914 13.3247 9.41732 12.7987C9.96063 12.7111 10.5945 12.6234 11.2283 12.6234C12.9488 12.6234 12.9488 12.6234 13.2205 10.8702C12.9488 10.7825 12.5866 10.6072 12.2244 10.5195C9.23622 9.46756 6.79134 7.62665 5.25197 4.82145C4.61811 3.68184 4.98032 3.06821 6.33858 3.24353C7.69685 3.41886 8.96457 3.7695 10.2323 4.03249C10.1417 3.15587 9.87008 2.19158 9.87008 1.13963C9.77953 0.0876864 10.3228 -0.262963 11.3189 0.263011C14.2165 1.66561 16.1181 3.94483 17.2047 6.83769C17.4764 7.53899 17.748 8.06496 18.7441 8.24028C21.5512 8.94158 23.4528 12.2728 22.8189 15.0779C22.7283 15.4286 22.2756 15.6916 21.9134 15.8669C21.6417 16.0422 21.189 15.8669 20.8268 15.8669C18.9252 15.8669 17.9291 16.7435 17.9291 18.6721C17.9291 19.7241 17.9291 20.8637 17.9291 21.9156C17.9291 22.0033 17.8386 22.0033 17.8386 22.1786C16.4803 22.1786 15.0315 22.1786 13.8543 22.1786C13.8543 21.302 13.8543 20.4253 13.6732 19.5487C13.4016 18.4091 12.0433 17.4448 10.9567 17.5325C10.5945 17.5325 10.2323 17.8831 9.96063 18.1461C10.2323 18.4968 10.4134 19.0228 10.685 19.0228C11.6811 19.1981 12.315 19.6364 12.315 20.6007C12.315 21.565 11.6811 22.0909 10.685 22.2663C10.4134 22.3539 10.1417 22.7922 9.96063 23.1429C10.3228 23.4059 10.5945 23.7565 10.9567 23.7565C12.9488 23.8442 14.9409 23.7565 16.9331 23.7565C18.1102 23.7565 19.0157 24.1072 19.4685 25.1591C19.7402 25.7728 19.8307 26.3864 19.1969 26.9124C15.937 27 12.7677 27 9.68898 27Z" fill="#8F8F8F"/>
<path d="M3.35039 25.2468C2.17322 25.4222 0.905505 24.7209 0.271646 23.4059C-0.362212 22.0033 0.090544 20.6884 1.26771 19.8118C1.99212 21.6527 2.62598 23.4936 3.35039 25.2468Z" fill="#8F8F8F"/>
</g>
<defs>
<clipPath id="clip0_411_7203">
<rect width="23" height="27" fill="white"/>
</clipPath>
</defs>
</svg>
