<svg width="24" height="25" viewBox="0 0 24 25" fill="none" xmlns="http://www.w3.org/2000/svg">
<path d="M12.5725 0.914307C13.4719 0.914307 14.2862 1.41381 14.7359 2.15118C14.9547 2.50797 15.1006 2.94801 15.0641 3.41184C15.0398 3.76863 15.1492 4.12542 15.3436 4.45842C15.9635 5.46933 17.3369 5.84991 18.4065 5.27904C19.6098 4.58925 21.129 5.0055 21.8218 6.18291L22.6361 7.58628C23.3411 8.76369 22.9521 10.2741 21.7367 10.952C20.7036 11.5585 20.339 12.9025 20.9589 13.9253C21.1533 14.2464 21.3721 14.5199 21.7124 14.6864C22.1378 14.9124 22.466 15.2692 22.6969 15.626C23.1466 16.3633 23.1101 17.2672 22.6726 18.064L21.8218 19.4912C21.3721 20.2523 20.5335 20.7281 19.6705 20.7281C19.2451 20.7281 18.7711 20.6091 18.3822 20.3713C18.0662 20.1691 17.7015 20.0977 17.3126 20.0977C16.1094 20.0977 15.1006 21.0849 15.0641 22.2623C15.0641 23.63 13.9459 24.7003 12.5482 24.7003H10.8952C9.48534 24.7003 8.36716 23.63 8.36716 22.2623C8.34285 21.0849 7.33406 20.0977 6.1308 20.0977C5.72971 20.0977 5.36509 20.1691 5.06123 20.3713C4.6723 20.6091 4.18614 20.7281 3.7729 20.7281C2.8978 20.7281 2.05916 20.2523 1.60946 19.4912L0.770821 18.064C0.321117 17.291 0.296809 16.3633 0.746512 15.626C0.940979 15.2692 1.3056 14.9124 1.71884 14.6864C2.05916 14.5199 2.27794 14.2464 2.48456 13.9253C3.09226 12.9025 2.72764 11.5585 1.69454 10.952C0.491275 10.2741 0.102342 8.76369 0.795129 7.58628L1.60946 6.18291C2.3144 5.0055 3.82151 4.58925 5.03693 5.27904C6.09434 5.84991 7.46776 5.46933 8.08762 4.45842C8.28208 4.12542 8.39147 3.76863 8.36716 3.41184C8.34285 2.94801 8.47655 2.50797 8.70748 2.15118C9.15718 1.41381 9.97151 0.938093 10.8588 0.914307H12.5725ZM11.7339 9.45349C9.82566 9.45349 8.28208 10.952 8.28208 12.8192C8.28208 14.6864 9.82566 16.173 11.7339 16.173C13.6421 16.173 15.1492 14.6864 15.1492 12.8192C15.1492 10.952 13.6421 9.45349 11.7339 9.45349Z" fill="#8F8F8F"/>
</svg>
