<svg width="19" height="18" viewBox="0 0 19 18" fill="none" xmlns="http://www.w3.org/2000/svg">
<path fill-rule="evenodd" clip-rule="evenodd" d="M8.97586 10.9088L12.3516 16.3855C12.4993 16.6255 12.7301 16.6227 12.8233 16.6098C12.9166 16.5969 13.1409 16.5397 13.2221 16.2673L17.4435 2.01007C17.5173 1.75807 17.3816 1.58637 17.3207 1.52545C17.2616 1.46452 17.0927 1.33437 16.8481 1.4036L2.58063 5.58155C2.31016 5.66093 2.25108 5.88801 2.23816 5.98125C2.22524 6.07633 2.22154 6.31172 2.46063 6.46218L8.00015 9.92657L12.8944 4.98061C13.163 4.70922 13.6015 4.70645 13.8738 4.97507C14.1461 5.24369 14.148 5.68309 13.8794 5.95448L8.97586 10.9088ZM12.7513 18C12.1089 18 11.5199 17.6732 11.1728 17.112L7.59398 11.3048L1.72676 7.63544C1.09444 7.23943 0.76397 6.53418 0.866434 5.79294C0.967975 5.05169 1.4766 4.46275 2.19108 4.25321L16.4585 0.075258C17.1148 -0.116747 17.8182 0.0651039 18.3019 0.546962C18.7856 1.03344 18.9656 1.74422 18.7699 2.40331L14.5486 16.6597C14.3372 17.3769 13.7464 17.8837 13.007 17.9825C12.9203 17.9935 12.8363 18 12.7513 18Z" fill="white"/>
</svg>
