<svg width="8" height="9" viewBox="0 0 8 9" fill="none" xmlns="http://www.w3.org/2000/svg">
<path d="M4.08184 0.0448039L7.06868 1.04693C7.40302 1.15857 7.62908 1.4657 7.63089 1.80989L7.64992 4.79819C7.65581 5.70412 7.32555 6.58269 6.72075 7.27108C6.44259 7.58703 6.08606 7.85841 5.63076 8.10111L4.02521 8.95938C3.97493 8.98586 3.91966 8.99954 3.86393 8.99999C3.80821 9.00042 3.75249 8.98718 3.70265 8.96115L2.08216 8.12273C1.62188 7.884 1.26217 7.61659 0.981289 7.30505C0.366525 6.62373 0.0249387 5.74913 0.0190492 4.84187L1.08794e-05 1.85578C-0.00179024 1.51115 0.220195 1.20182 0.552721 1.08576L3.52824 0.0478928C3.70492 -0.0147678 3.90199 -0.0160917 4.08184 0.0448039ZM5.51016 3.24839C5.37652 3.11998 5.16133 3.12087 5.02949 3.25104L3.51365 4.74519L2.89299 4.14859C2.75935 4.02018 2.54461 4.0215 2.41233 4.15168C2.2805 4.28185 2.28185 4.49102 2.4155 4.61943L3.27762 5.44902C3.34467 5.51344 3.43165 5.54522 3.51863 5.54435C3.60561 5.54389 3.69214 5.51124 3.75829 5.44593L5.51288 3.71614C5.64471 3.58597 5.64335 3.37681 5.51016 3.24839Z" fill="#50A7E7"/>
</svg>
